<mxfile host="app.diagrams.net" modified="2021-11-29T15:53:19.293Z" agent="5.0 (Windows)" etag="fbMAhZyVxt0D2oTBq-nu" version="15.8.6" type="github">
  <diagram id="sFk4DHgZ517E8RvEYQjs" name="Page-1">
    <mxGraphModel dx="1483" dy="806" grid="1" gridSize="10" guides="1" tooltips="1" connect="1" arrows="1" fold="1" page="1" pageScale="1" pageWidth="827" pageHeight="1169" math="0" shadow="0">
      <root>
        <mxCell id="0" />
        <mxCell id="1" parent="0" />
        <mxCell id="UIn7VJA0xB-8X-Yz1GyW-1" value="" style="rounded=0;whiteSpace=wrap;html=1;fillColor=#f5f5f5;fontColor=#333333;strokeColor=#666666;" vertex="1" parent="1">
          <mxGeometry x="80" y="60" width="680" height="670" as="geometry" />
        </mxCell>
        <mxCell id="UIn7VJA0xB-8X-Yz1GyW-2" value="" style="rounded=0;whiteSpace=wrap;html=1;" vertex="1" parent="1">
          <mxGeometry x="530" y="130" width="150" height="20" as="geometry" />
        </mxCell>
        <mxCell id="UIn7VJA0xB-8X-Yz1GyW-3" value="Stock actuel" style="text;html=1;align=left;verticalAlign=middle;resizable=0;points=[];autosize=1;strokeColor=none;fillColor=none;fontStyle=2" vertex="1" parent="1">
          <mxGeometry x="530" y="110" width="80" height="20" as="geometry" />
        </mxCell>
        <mxCell id="UIn7VJA0xB-8X-Yz1GyW-4" value="Lenght" style="text;html=1;align=left;verticalAlign=middle;resizable=0;points=[];autosize=1;strokeColor=none;fillColor=none;fontStyle=2" vertex="1" parent="1">
          <mxGeometry x="130" y="160" width="50" height="20" as="geometry" />
        </mxCell>
        <mxCell id="UIn7VJA0xB-8X-Yz1GyW-6" value="" style="rounded=0;whiteSpace=wrap;html=1;" vertex="1" parent="1">
          <mxGeometry x="130" y="260" width="150" height="20" as="geometry" />
        </mxCell>
        <mxCell id="UIn7VJA0xB-8X-Yz1GyW-9" value="" style="rounded=0;whiteSpace=wrap;html=1;" vertex="1" parent="1">
          <mxGeometry x="130" y="180" width="150" height="20" as="geometry" />
        </mxCell>
        <mxCell id="UIn7VJA0xB-8X-Yz1GyW-11" value="Width" style="text;html=1;align=left;verticalAlign=middle;resizable=0;points=[];autosize=1;strokeColor=none;fillColor=none;fontStyle=2" vertex="1" parent="1">
          <mxGeometry x="130" y="200" width="50" height="20" as="geometry" />
        </mxCell>
        <mxCell id="UIn7VJA0xB-8X-Yz1GyW-12" value="" style="rounded=0;whiteSpace=wrap;html=1;" vertex="1" parent="1">
          <mxGeometry x="130" y="220" width="150" height="20" as="geometry" />
        </mxCell>
        <mxCell id="UIn7VJA0xB-8X-Yz1GyW-13" value="Height" style="text;html=1;align=left;verticalAlign=middle;resizable=0;points=[];autosize=1;strokeColor=none;fillColor=none;fontStyle=2" vertex="1" parent="1">
          <mxGeometry x="130" y="240" width="50" height="20" as="geometry" />
        </mxCell>
        <mxCell id="UIn7VJA0xB-8X-Yz1GyW-15" value="" style="rounded=0;whiteSpace=wrap;html=1;" vertex="1" parent="1">
          <mxGeometry x="530" y="180" width="150" height="20" as="geometry" />
        </mxCell>
        <mxCell id="UIn7VJA0xB-8X-Yz1GyW-17" value="Weight" style="text;html=1;align=left;verticalAlign=middle;resizable=0;points=[];autosize=1;strokeColor=none;fillColor=none;fontStyle=2" vertex="1" parent="1">
          <mxGeometry x="530" y="160" width="50" height="20" as="geometry" />
        </mxCell>
        <mxCell id="UIn7VJA0xB-8X-Yz1GyW-18" value="Product name" style="text;html=1;align=left;verticalAlign=middle;resizable=0;points=[];autosize=1;strokeColor=none;fillColor=none;fontStyle=2" vertex="1" parent="1">
          <mxGeometry x="130" y="110" width="90" height="20" as="geometry" />
        </mxCell>
        <mxCell id="UIn7VJA0xB-8X-Yz1GyW-19" value="" style="rounded=0;whiteSpace=wrap;html=1;" vertex="1" parent="1">
          <mxGeometry x="130" y="130" width="150" height="20" as="geometry" />
        </mxCell>
        <mxCell id="UIn7VJA0xB-8X-Yz1GyW-20" value="Product price" style="text;html=1;align=left;verticalAlign=middle;resizable=0;points=[];autosize=1;strokeColor=none;fillColor=none;fontStyle=2" vertex="1" parent="1">
          <mxGeometry x="330" y="110" width="90" height="20" as="geometry" />
        </mxCell>
        <mxCell id="UIn7VJA0xB-8X-Yz1GyW-21" value="" style="rounded=0;whiteSpace=wrap;html=1;" vertex="1" parent="1">
          <mxGeometry x="330" y="130" width="150" height="20" as="geometry" />
        </mxCell>
        <mxCell id="UIn7VJA0xB-8X-Yz1GyW-26" value="" style="rounded=0;whiteSpace=wrap;html=1;fillColor=#fff2cc;strokeColor=#d6b656;" vertex="1" parent="1">
          <mxGeometry x="102.5" y="90" width="635" height="10" as="geometry" />
        </mxCell>
        <mxCell id="UIn7VJA0xB-8X-Yz1GyW-27" value="&lt;div&gt;NOUVEAU PRODUIT&lt;br&gt;&lt;/div&gt;" style="text;html=1;align=center;verticalAlign=middle;resizable=0;points=[];autosize=1;strokeColor=none;fillColor=none;fontStyle=1" vertex="1" parent="1">
          <mxGeometry x="355" y="70" width="130" height="20" as="geometry" />
        </mxCell>
        <mxCell id="UIn7VJA0xB-8X-Yz1GyW-29" value="" style="rounded=0;whiteSpace=wrap;html=1;fillColor=#fff2cc;strokeColor=#d6b656;" vertex="1" parent="1">
          <mxGeometry x="102.5" y="290" width="635" height="10" as="geometry" />
        </mxCell>
        <mxCell id="UIn7VJA0xB-8X-Yz1GyW-30" value="" style="rounded=0;whiteSpace=wrap;html=1;fillColor=#fff2cc;strokeColor=#d6b656;" vertex="1" parent="1">
          <mxGeometry x="102.5" y="340" width="635" height="10" as="geometry" />
        </mxCell>
        <mxCell id="UIn7VJA0xB-8X-Yz1GyW-31" value="SAISIE DECOMPOSANT" style="text;html=1;align=center;verticalAlign=middle;resizable=0;points=[];autosize=1;strokeColor=none;fillColor=none;fontStyle=1" vertex="1" parent="1">
          <mxGeometry x="339" y="310" width="150" height="20" as="geometry" />
        </mxCell>
        <mxCell id="UIn7VJA0xB-8X-Yz1GyW-32" value="" style="rounded=0;whiteSpace=wrap;html=1;fillColor=#fff2cc;strokeColor=#d6b656;" vertex="1" parent="1">
          <mxGeometry x="102.5" y="650" width="635" height="10" as="geometry" />
        </mxCell>
        <mxCell id="UIn7VJA0xB-8X-Yz1GyW-33" value="" style="rounded=0;whiteSpace=wrap;html=1;" vertex="1" parent="1">
          <mxGeometry x="111.25" y="590" width="617.5" height="50" as="geometry" />
        </mxCell>
        <mxCell id="UIn7VJA0xB-8X-Yz1GyW-34" value="" style="ellipse;whiteSpace=wrap;html=1;aspect=fixed;" vertex="1" parent="1">
          <mxGeometry x="678.75" y="590" width="50" height="50" as="geometry" />
        </mxCell>
        <mxCell id="UIn7VJA0xB-8X-Yz1GyW-36" value="" style="shape=cross;whiteSpace=wrap;html=1;fillColor=#60a917;strokeColor=#2D7600;fontColor=#ffffff;" vertex="1" parent="1">
          <mxGeometry x="678.75" y="590" width="50" height="50" as="geometry" />
        </mxCell>
        <mxCell id="UIn7VJA0xB-8X-Yz1GyW-37" value="Ajouter un composant / élément" style="text;html=1;align=center;verticalAlign=middle;resizable=0;points=[];autosize=1;strokeColor=none;fillColor=none;fontStyle=1" vertex="1" parent="1">
          <mxGeometry x="325" y="605" width="190" height="20" as="geometry" />
        </mxCell>
        <mxCell id="UIn7VJA0xB-8X-Yz1GyW-38" value="" style="rounded=0;whiteSpace=wrap;html=1;" vertex="1" parent="1">
          <mxGeometry x="111.25" y="370" width="617.5" height="50" as="geometry" />
        </mxCell>
        <mxCell id="UIn7VJA0xB-8X-Yz1GyW-39" value="" style="rounded=0;whiteSpace=wrap;html=1;" vertex="1" parent="1">
          <mxGeometry x="175" y="390" width="150" height="20" as="geometry" />
        </mxCell>
        <mxCell id="UIn7VJA0xB-8X-Yz1GyW-40" value="Product name" style="text;html=1;align=left;verticalAlign=middle;resizable=0;points=[];autosize=1;strokeColor=none;fillColor=none;fontStyle=2" vertex="1" parent="1">
          <mxGeometry x="175" y="370" width="90" height="20" as="geometry" />
        </mxCell>
        <mxCell id="UIn7VJA0xB-8X-Yz1GyW-41" value="1" style="rounded=0;whiteSpace=wrap;html=1;fontSize=25;" vertex="1" parent="1">
          <mxGeometry x="120" y="380" width="31.25" height="30" as="geometry" />
        </mxCell>
        <mxCell id="UIn7VJA0xB-8X-Yz1GyW-42" value="" style="rounded=0;whiteSpace=wrap;html=1;" vertex="1" parent="1">
          <mxGeometry x="111.25" y="430" width="617.5" height="50" as="geometry" />
        </mxCell>
        <mxCell id="UIn7VJA0xB-8X-Yz1GyW-43" value="" style="rounded=0;whiteSpace=wrap;html=1;" vertex="1" parent="1">
          <mxGeometry x="175" y="450" width="150" height="20" as="geometry" />
        </mxCell>
        <mxCell id="UIn7VJA0xB-8X-Yz1GyW-44" value="Product name" style="text;html=1;align=left;verticalAlign=middle;resizable=0;points=[];autosize=1;strokeColor=none;fillColor=none;fontStyle=2" vertex="1" parent="1">
          <mxGeometry x="175" y="430" width="90" height="20" as="geometry" />
        </mxCell>
        <mxCell id="UIn7VJA0xB-8X-Yz1GyW-45" value="2" style="rounded=0;whiteSpace=wrap;html=1;fontSize=25;" vertex="1" parent="1">
          <mxGeometry x="120" y="440" width="31.25" height="30" as="geometry" />
        </mxCell>
        <mxCell id="UIn7VJA0xB-8X-Yz1GyW-46" value="" style="rounded=0;whiteSpace=wrap;html=1;" vertex="1" parent="1">
          <mxGeometry x="380" y="390" width="150" height="20" as="geometry" />
        </mxCell>
        <mxCell id="UIn7VJA0xB-8X-Yz1GyW-47" value="Quantité" style="text;html=1;align=left;verticalAlign=middle;resizable=0;points=[];autosize=1;strokeColor=none;fillColor=none;fontStyle=2" vertex="1" parent="1">
          <mxGeometry x="380" y="370" width="60" height="20" as="geometry" />
        </mxCell>
        <mxCell id="UIn7VJA0xB-8X-Yz1GyW-49" value="" style="rounded=0;whiteSpace=wrap;html=1;" vertex="1" parent="1">
          <mxGeometry x="380" y="450" width="150" height="20" as="geometry" />
        </mxCell>
        <mxCell id="UIn7VJA0xB-8X-Yz1GyW-50" value="Quantité" style="text;html=1;align=left;verticalAlign=middle;resizable=0;points=[];autosize=1;strokeColor=none;fillColor=none;fontStyle=2" vertex="1" parent="1">
          <mxGeometry x="380" y="430" width="60" height="20" as="geometry" />
        </mxCell>
        <mxCell id="UIn7VJA0xB-8X-Yz1GyW-52" value="&lt;font style=&quot;font-size: 25px&quot;&gt;&lt;b&gt;VALIDER&lt;/b&gt;&lt;/font&gt;" style="rounded=0;whiteSpace=wrap;html=1;fillColor=#60a917;fontColor=#ffffff;strokeColor=#2D7600;" vertex="1" parent="1">
          <mxGeometry x="310.62" y="670" width="218.75" height="50" as="geometry" />
        </mxCell>
        <mxCell id="UIn7VJA0xB-8X-Yz1GyW-53" value="" style="ellipse;whiteSpace=wrap;html=1;aspect=fixed;" vertex="1" parent="1">
          <mxGeometry x="678.75" y="370" width="50" height="50" as="geometry" />
        </mxCell>
        <mxCell id="UIn7VJA0xB-8X-Yz1GyW-55" value="" style="ellipse;whiteSpace=wrap;html=1;aspect=fixed;" vertex="1" parent="1">
          <mxGeometry x="678.75" y="430" width="50" height="50" as="geometry" />
        </mxCell>
        <mxCell id="UIn7VJA0xB-8X-Yz1GyW-56" value="" style="shape=cross;whiteSpace=wrap;html=1;fillColor=#a20025;strokeColor=#6F0000;fontColor=#ffffff;rotation=45;" vertex="1" parent="1">
          <mxGeometry x="678.75" y="430" width="50" height="50" as="geometry" />
        </mxCell>
        <mxCell id="UIn7VJA0xB-8X-Yz1GyW-57" value="" style="shape=cross;whiteSpace=wrap;html=1;fillColor=#a20025;strokeColor=#6F0000;fontColor=#ffffff;rotation=45;" vertex="1" parent="1">
          <mxGeometry x="680" y="370" width="50" height="50" as="geometry" />
        </mxCell>
      </root>
    </mxGraphModel>
  </diagram>
</mxfile>
